<svg id="Livello_1" data-name="Livello 1" xmlns="http://www.w3.org/2000/svg" viewBox="0 0 28.35 28.35"><defs><style>.cls-1{fill:#fff;opacity:0.9;}.cls-2{fill:#e87722;}</style></defs><path class="cls-1" d="M509.14,152.25A13.17,13.17,0,1,1,496,165.42a13.19,13.19,0,0,1,13.17-13.17" transform="translate(-494.97 -151.25)"/><path class="cls-2" d="M509.14,152.25A13.17,13.17,0,1,1,496,165.42a13.19,13.19,0,0,1,13.17-13.17m0-1a14.17,14.17,0,1,0,14.18,14.17,14.17,14.17,0,0,0-14.18-14.17Z" transform="translate(-494.97 -151.25)"/><path class="cls-2" d="M517,168.61a1.81,1.81,0,0,0-.87-1.41l-6.47-3.84v-4.6a1.81,1.81,0,0,0-3.62,0v10.17l-1.5-1.57s-2.08-1.75-4.16-.31l-1,.69,6.71,6.58a7.24,7.24,0,0,0,4.32,1.87c3.43,0,4.67-1.81,4.67-1.81A9.2,9.2,0,0,0,517,168.61Z" transform="translate(-494.97 -151.25)"/><path class="cls-2" d="M505,160.9a.48.48,0,0,1-.42-.23,3.7,3.7,0,0,1-.54-1.91,3.87,3.87,0,0,1,7.73,0,3.67,3.67,0,0,1-.52,1.88.51.51,0,0,1-.67.17.48.48,0,0,1-.18-.65,2.67,2.67,0,0,0,.39-1.4,2.89,2.89,0,0,0-5.78,0,2.64,2.64,0,0,0,.41,1.42.48.48,0,0,1-.42.72Z" transform="translate(-494.97 -151.25)"/></svg>