<svg id="Livello_1" data-name="Livello 1" xmlns="http://www.w3.org/2000/svg" viewBox="0 0 28.35 28.35"><defs><style>.cls-1,.cls-3{fill:#fff;}.cls-1{opacity:0.9;}.cls-2{fill:#e87722;}</style></defs><path class="cls-1" d="M547.49,152.25a13.17,13.17,0,1,1-13.17,13.17,13.19,13.19,0,0,1,13.17-13.17" transform="translate(-533.32 -151.25)"/><path class="cls-2" d="M547.49,152.25a13.17,13.17,0,1,1-13.17,13.17,13.18,13.18,0,0,1,13.17-13.17m0-1a14.17,14.17,0,1,0,14.17,14.17,14.16,14.16,0,0,0-14.17-14.17Z" transform="translate(-533.32 -151.25)"/><polygon class="cls-2" points="20.67 7.68 20.67 7.09 7.68 7.09 7.68 7.68 7.09 7.68 7.09 20.67 7.68 20.67 7.68 21.26 20.67 21.26 20.67 20.67 21.26 20.67 21.26 7.68 20.67 7.68"/><rect class="cls-3" x="8.28" y="18.89" width="1.45" height="1.18"/><rect class="cls-3" x="8.28" y="16.24" width="1.45" height="1.18"/><rect class="cls-3" x="8.28" y="13.58" width="1.45" height="1.18"/><rect class="cls-3" x="8.28" y="10.93" width="1.45" height="1.18"/><rect class="cls-3" x="8.28" y="8.27" width="1.45" height="1.18"/><rect class="cls-3" x="551.93" y="170.14" width="1.45" height="1.18" transform="translate(572 190.21) rotate(-180)"/><rect class="cls-3" x="551.93" y="167.48" width="1.45" height="1.18" transform="translate(572 184.9) rotate(-180)"/><rect class="cls-3" x="551.93" y="164.83" width="1.45" height="1.18" transform="translate(572 179.59) rotate(-180)"/><rect class="cls-3" x="551.93" y="162.17" width="1.45" height="1.18" transform="translate(572 174.28) rotate(-180)"/><rect class="cls-3" x="551.93" y="159.52" width="1.45" height="1.18" transform="translate(572 168.97) rotate(-180)"/><polygon class="cls-3" points="12.59 16.49 16.38 14.15 12.59 11.81 12.59 16.49"/></svg>