<svg id="Livello_1" data-name="Livello 1" xmlns="http://www.w3.org/2000/svg" viewBox="0 0 28.35 28.35"><defs><style>.cls-1{fill:#fff;opacity:0.9;}.cls-2{fill:#06038d;}</style></defs><path class="cls-1" d="M470.8,152.25a13.17,13.17,0,1,1-13.18,13.17,13.19,13.19,0,0,1,13.18-13.17" transform="translate(-456.62 -151.25)"/><path class="cls-2" d="M470.8,152.25a13.17,13.17,0,1,1-13.18,13.17,13.19,13.19,0,0,1,13.18-13.17m0-1A14.17,14.17,0,1,0,485,165.42a14.17,14.17,0,0,0-14.17-14.17Z" transform="translate(-456.62 -151.25)"/><path class="cls-2" d="M482.93,167.4l-4.81-7.69a.5.5,0,0,0-.64-.19l-.31-.57a.51.51,0,0,0-.54-.25l-.47.09-.33-.55a.5.5,0,0,0-.58-.22,10.49,10.49,0,0,0-4.45,3,10.55,10.55,0,0,0-4.46-3,.49.49,0,0,0-.57.22l-.34.55-.47-.09a.5.5,0,0,0-.53.25l-.32.57a.5.5,0,0,0-.64.19l-4.81,7.69a.51.51,0,0,0-.05.4.48.48,0,0,0,.26.31c5.68,2.81,11.65,5.6,11.71,5.63a.54.54,0,0,0,.22,0,.54.54,0,0,0,.21,0c.06,0,6-2.82,11.72-5.63a.51.51,0,0,0,.26-.31A.56.56,0,0,0,482.93,167.4ZM461.69,166l.09.05a19.88,19.88,0,0,1,6.68,4.65,64.56,64.56,0,0,0-7-4.24Zm18.21,0,.26.46a64.91,64.91,0,0,0-7,4.24,19.93,19.93,0,0,1,6.69-4.65A.26.26,0,0,0,479.9,166Zm-4.72-6.84,3.72,6.19a22.33,22.33,0,0,0-7.6,5.85v-9.21A9.73,9.73,0,0,1,475.18,159.11Zm-8.77,0a9.82,9.82,0,0,1,3.89,2.83v9.21a22.38,22.38,0,0,0-7.61-5.85Zm-6.15,7.62s0,0,0,.05a.51.51,0,0,0,.26.3,56.49,56.49,0,0,1,6.8,4c-2.09-1-4.82-2.31-7.53-3.64Zm14,4.37a57.28,57.28,0,0,1,6.8-4,.48.48,0,0,0,.26-.3.09.09,0,0,0,0-.05l.46.73C479.08,168.79,476.35,170.1,474.26,171.1Z" transform="translate(-456.62 -151.25)"/></svg>