<?xml version="1.0" encoding="utf-8"?>
<!-- Generator: Adobe Illustrator 19.0.1, SVG Export Plug-In . SVG Version: 6.00 Build 0)  -->
<!DOCTYPE svg PUBLIC "-//W3C//DTD SVG 1.1//EN" "http://www.w3.org/Graphics/SVG/1.1/DTD/svg11.dtd">
<svg version="1.1" id="Livello_1" xmlns="http://www.w3.org/2000/svg" xmlns:xlink="http://www.w3.org/1999/xlink" x="0px" y="0px"
	 viewBox="0 0 309 303.2" enable-background="new 0 0 309 303.2" xml:space="preserve">
<linearGradient id="SVGID_1_" gradientUnits="userSpaceOnUse" x1="0" y1="151.5842" x2="308.9854" y2="151.5842">
	<stop  offset="0" style="stop-color:#9BCBEB"/>
	<stop  offset="0.1378" style="stop-color:#96CAEB"/>
	<stop  offset="0.3025" style="stop-color:#87C6EA"/>
	<stop  offset="0.4811" style="stop-color:#6FC0E8"/>
	<stop  offset="0.6696" style="stop-color:#4EB7E6"/>
	<stop  offset="0.8637" style="stop-color:#23ACE2"/>
	<stop  offset="1" style="stop-color:#06038D"/>
</linearGradient>
<polygon fill="url(#SVGID_1_)" points="309,154.1 154.8,0 0,0 309,303.2 "/>
<g>
	<path fill="#FFFFFF" d="M128.3,38.8l-0.2-0.2l-29,19.8c-0.8,0.5-1.5,0.5-2.3-0.2L93,54.3c-0.8-0.8-0.7-1.4,0.2-1.9l40.6-27.5
		c0.7-0.5,1.5-0.4,2.2,0.3l3.1,3.1c1.6,1.6,1,2.6,0.4,4.1l-6.5,15.9L126,66l0.2,0.2l29-19.8c0.8-0.6,1.5-0.7,2.3,0.2l3.9,3.9
		c0.8,0.8,0.6,1.3-0.3,1.9l-40.6,27.4c-0.8,0.5-1.4,0.5-2.2-0.2l-3.1-3.1c-1-1-1-1.6-0.5-2.6L125,47.1L128.3,38.8z"/>
	<path fill="#FFFFFF" d="M161.4,96.3l26-17.6c0.9-0.5,1.6-0.5,2.3,0.2l4,4c0.8,0.8,0.5,1.4-0.3,1.9l-26.1,17.5
		c-9.8,6.7-19.7,7.6-28.8-1.5c-9.4-9.4-7.6-18.4,2.3-25l26-17.6c0.9-0.5,1.6-0.6,2.4,0.2l4,4c0.8,0.8,0.5,1.4-0.3,1.8l-26,17.6
		c-6.2,4.3-7.6,8.9-2.6,13.8C149.1,100.3,154.8,100.8,161.4,96.3z"/>
	<path fill="#FFFFFF" d="M214.3,127.3c-1.9,1.9-4,3.5-6.2,5c-11.2,8.2-24,14.1-36.8,1.2c-8.8-8.8-7.3-16.8,0.1-24.2
		c2.3-2.3,4.9-4.3,7.7-6.1c10-7,23.2-12.8,35.2-0.7C223.2,111.4,222.1,119.7,214.3,127.3z M184.7,110c-2.4,1.6-4.5,3.3-6.4,5.1
		c-4.7,4.6-5.7,9-1.1,13.6c7.5,7.5,15.6,3.5,24-2.2c2.4-1.6,4.7-3.3,6.7-5.3c4.8-4.7,5.3-9.1,0.6-13.9
		C201.6,100.4,192.9,104.5,184.7,110z"/>
	<path fill="#FFFFFF" d="M208.7,167.8c-1.1,0.3-1.8,0.3-2.9-0.8l-4.2-4.2c-1-1-1-1.6-0.4-2.4l29.3-38.5l0.2-0.2
		c0.6-0.6,1.1-0.7,1.8,0l3.8,3.8c1,1,1,1.5,0.3,2.4l-10.4,13.4l-8.3,10.5c-0.3,0.3-4.4,5.6-5.3,6.7l0.2,0.2l8.8-2.9
		c2.2-0.8,7.1-2.5,12.5-4.3c8.3-2.8,18-5.9,19.5-6.5c1.2-0.4,2.1-0.3,2.9,0.5l4.5,4.5c0.4,0.4,0.4,0.8,0.2,1c-0.2,0.2-0.5,0.3-1,0.4
		C243.1,157,225.9,162.3,208.7,167.8z"/>
	<path fill="#FFFFFF" d="M278.7,191.6c-1.9,1.9-4,3.5-6.2,5c-11.2,8.2-24,14.1-36.8,1.2c-8.8-8.8-7.3-16.8,0.1-24.2
		c2.3-2.3,4.9-4.3,7.7-6.1c10-7,23.2-12.8,35.2-0.7C287.5,175.7,286.4,184.1,278.7,191.6z M249.1,174.3c-2.4,1.6-4.5,3.3-6.4,5.1
		c-4.7,4.6-5.7,9-1.1,13.6c7.5,7.5,15.6,3.5,24-2.2c2.4-1.6,4.7-3.3,6.7-5.3c4.8-4.7,5.3-9.1,0.6-13.9
		C265.9,164.8,257.3,168.8,249.1,174.3z"/>
</g>
</svg>
