<svg enable-background="new 0 0 250 54.4" height="54.4" viewBox="0 0 250 54.4" width="250" xmlns="http://www.w3.org/2000/svg"><path d="m134.5.8c0-.1-.2-.7-.2-.8-36.3 12.3-75 13.8-109.6 11l-2 4.1c40.6 2.5 80.9-1.9 111.8-14.3"/><g fill="#bcbe22"><path d="m90.7 31.3v22.3h-8.8v-22.3h-8v-7.4h24.4v7.4z"/><path d="m113.9 30.1c-3.6 0-5.6 3.4-5.6 8.7s2 8.7 5.6 8.7 5.6-3.4 5.6-8.7-2-8.7-5.6-8.7m0 24.1c-8.6 0-14.4-6.2-14.4-15.4s5.7-15.4 14.5-15.4c8.7 0 14.4 6.2 14.4 15.4s-5.8 15.4-14.5 15.4"/><path d="m141.7 30.4h-1.1v8h1c2.9 0 4.5-1.3 4.5-4.1 0-2.6-1.5-3.9-4.4-3.9m.4 14.3h-1.4v8.9h-8.8v-29.7h10.3c7.7 0 12.3 3.3 12.3 10.2.1 7-4.9 10.6-12.4 10.6"/><path d="m147.2 50.9c.5 0 1.2.1 1.2-.6 0-.5-.4-.6-.9-.6h-1v1.2zm-.7 2.1h-.5v-3.7h1.6c1 0 1.3.4 1.3 1 0 .7-.5 1-1.1 1l1.1 1.6h-.5l-1-1.6h-.8v1.7zm3.4-1.8c0-1.6-1.1-2.7-2.7-2.7s-2.7 1.1-2.7 2.7 1.1 2.7 2.7 2.7 2.7-1.1 2.7-2.7m-5.9 0c0-1.8 1.4-3.2 3.2-3.2s3.2 1.4 3.2 3.2-1.4 3.2-3.2 3.2c-1.7 0-3.2-1.4-3.2-3.2"/></g><path d="m14.3 27.4-5.8 13.6h11.5zm11.1 26.2-4.3-10h-13.7l-4.3 10h-3.1l12.7-29.6h3.3l12.7 29.6z"/><path d="m43.1 54.2c-8.5 0-15.5-6.7-15.5-15.3s6.8-15.4 15.4-15.4c4.2 0 7.8 1.6 10.8 4.4 1.3 1.2 2.1 2 2.8 3.7h-3.3c-2.3-3.4-6.3-5.4-10.3-5.4-6.8 0-12.5 6-12.5 12.7s5.8 12.6 12.5 12.6c4.2 0 8-2.3 10.4-5.6h3.3c-2.7 5-7.9 8.3-13.6 8.3"/><path d="m60.4 53.6v-29.6h3v27h12.2v2.6z"/><path d="m175.6 24v2.9h-10.5l-1.4 8c.7-.2 1.8-.5 3.4-.5 5.5 0 9.3 4.1 9.3 9.6 0 5.7-3.9 10.3-10.3 10.3-5 0-8.4-3.3-9-7.8h3c.7 3.6 3.5 5.1 6.2 5.1 3.8 0 7.1-3.2 7.1-7.7 0-4-2.7-6.7-6.9-6.7-2.3 0-4.3.8-6.3 1.6l2.7-14.6h12.7z"/><path d="m197.1 24v2.9h-10.5l-1.4 8c.7-.2 1.8-.5 3.4-.5 5.5 0 9.3 4.1 9.3 9.6 0 5.7-3.9 10.3-10.3 10.3-5 0-8.4-3.3-9-7.8h3c.7 3.6 3.5 5.1 6.2 5.1 3.8 0 7.1-3.2 7.1-7.7 0-4-2.7-6.7-6.9-6.7-2.3 0-4.3.8-6.3 1.6l2.7-14.6h12.7z"/><path d="m202.7 38.9c0 7.3 5.7 12.5 12.4 12.5 6.9 0 12.5-5.3 12.5-12.6 0-7.5-6-12.6-12.5-12.6s-12.4 5.1-12.4 12.7m28-.1c0 8.7-6.8 15.5-15.5 15.5-9.1 0-15.6-7.1-15.6-15.4 0-8.8 6.8-15.6 15.3-15.6 9 0 15.8 6.7 15.8 15.5"/><path d="m239.9 31c-.9 1.2-2.3 1.8-3.9 1.8-3 0-4.9-2.1-4.9-4.8s2.1-4.7 4.9-4.7c1.7 0 3.1.7 3.9 1.9l-.7.5c-.8-1-1.9-1.6-3.2-1.6-2.1 0-3.9 1.6-3.9 3.9 0 2.2 1.7 3.9 4 3.9 1.3 0 2.3-.5 3.2-1.5z"/><path d="m239.9 24.4v-.9h5v.9h-2v8.1h-.9v-8.1z"/><path d="m249.1 25.3c-.5-.6-.9-1.1-1.7-1.1s-1.2.6-1.2 1.1.3 1 .8 1.4c1.7 1.3 2.9 2.1 2.9 3.6 0 1.3-1.1 2.4-2.5 2.4-1.2 0-2.1-.7-2.7-1.9l.8-.5c.5 1 1.2 1.5 1.9 1.5.9 0 1.7-.7 1.7-1.5 0-1-.9-1.6-3-3.2-.4-.3-.8-1.1-.8-1.7 0-1.2 1-2.1 2.2-2.1 1.1 0 1.8.7 2.4 1.5z"/></svg>