<svg enable-background="new 0 0 249.3 56.3" height="56.3" viewBox="0 0 249.3 56.3" width="249.3" xmlns="http://www.w3.org/2000/svg"><path d="m239.2 32.3c-.9 1.2-2.3 1.8-3.9 1.8-3 0-4.9-2.1-4.9-4.8s2.1-4.7 4.9-4.7c1.7 0 3.1.7 3.9 1.9l-.7.5c-.8-1-1.9-1.6-3.2-1.6-2.1 0-3.9 1.6-3.9 3.9 0 2.2 1.7 3.9 4 3.9 1.3 0 2.3-.5 3.2-1.5z"/><path d="m239.3 25.7v-.9h4.9v.9h-2v8.2h-.9v-8.2z"/><path d="m248.5 26.7c-.5-.6-.9-1.1-1.7-1.1s-1.2.6-1.2 1.1.3 1 .8 1.4c1.7 1.3 2.9 2.1 2.9 3.6 0 1.3-1.1 2.4-2.5 2.4-1.2 0-2.1-.7-2.7-1.9l.8-.5c.5 1 1.2 1.5 1.9 1.5.9 0 1.7-.7 1.7-1.5 0-1-.9-1.6-3-3.2-.4-.3-.8-1.1-.8-1.7 0-1.2 1-2.1 2.2-2.1 1.1 0 1.8.7 2.4 1.5z"/><path d="m152.1 52.7c.5 0 1.3.1 1.3-.6 0-.5-.4-.6-.9-.6h-1v1.2zm-.6 2.1h-.5v-3.8h1.6c1 0 1.3.4 1.3 1.1s-.5 1-1.2 1.1l1.1 1.7h-.5l-1.1-1.7h-.8v1.6zm3.5-1.9c0-1.6-1.2-2.8-2.8-2.8s-2.8 1.2-2.8 2.8 1.2 2.8 2.8 2.8c1.7 0 2.8-1.1 2.8-2.8m-6.1 0c0-1.8 1.5-3.3 3.3-3.3s3.3 1.5 3.3 3.3-1.5 3.3-3.3 3.3c-1.8.1-3.3-1.4-3.3-3.3" fill="#bcbe22"/><path d="m93.7 32.3v23.1h-9.1v-23.1h-8.2v-7.5h25.2v7.5z" fill="#bcbe22"/><path d="m160.7 24.8h19.3l-16.3 31.3-2.5-1.3 14.1-27h-14.6z"/><path d="m195.6 24.8v3h-10.9l-1.5 8.2c.8-.2 1.9-.6 3.6-.6 5.7 0 9.6 4.3 9.6 9.9 0 5.9-4.1 10.7-10.7 10.7-5.2 0-8.7-3.4-9.3-8.1h3.1c.8 3.7 3.6 5.3 6.4 5.3 3.9 0 7.3-3.3 7.3-8 0-4.1-2.8-7-7.2-7-2.4 0-4.5.8-6.5 1.7l2.8-15.1z"/><path d="m201.7 40.2c0 7.5 5.9 12.9 12.8 12.9 7.1 0 13-5.4 13-13.1s-6.2-13-13-13c-6.6 0-12.8 5.4-12.8 13.2m29-.2c0 9-7 16-16.1 16-9.4 0-16.1-7.3-16.1-15.9 0-9.1 7.1-16.1 15.8-16.1 9.4 0 16.4 7 16.4 16"/><path d="m139.1.8c0-.1-.2-.7-.3-.8-37.5 12.7-77.5 14.2-113.3 11.4l-2.1 4.2c42.1 2.6 83.7-2 115.7-14.8"/><path d="m117.8 31.1c-3.7 0-5.8 3.5-5.8 9s2.1 9 5.8 9 5.8-3.5 5.8-9-2.1-9-5.8-9m-.1 24.9c-8.9 0-14.9-6.4-14.9-15.9s5.9-16 14.9-16 14.9 6.4 14.9 15.9c.1 9.5-5.9 16-14.9 16" fill="#bcbe22"/><path d="m146.5 31.4h-1.1v8.2h1c3 0 4.7-1.3 4.7-4.2 0-2.7-1.6-4-4.6-4m.4 14.8h-1.4v9.2h-9.1v-30.6h10.6c7.9 0 12.8 3.4 12.8 10.5 0 7.2-5.2 10.9-12.9 10.9" fill="#bcbe22"/><path d="m62.4 55.4v-30.6h3.1v27.9h12.7v2.7z"/><path d="m44.5 56c-8.8 0-16-6.9-16-15.8s7.1-15.9 16-15.9c4.3 0 8.1 1.6 11.2 4.5 1.3 1.2 2.2 2.1 2.8 3.9h-3.4c-2.3-3.5-6.4-5.6-10.6-5.6-7 0-12.9 6.2-12.9 13.2 0 6.9 6 13 12.9 13 4.3 0 8.3-2.4 10.7-5.8h3.4c-2.8 5.1-8.1 8.5-14.1 8.5"/><path d="m14.8 28.3-6 14h11.9zm11.5 27.1-4.4-10.3h-14.3l-4.4 10.3h-3.2l13.1-30.6h3.4l13.2 30.6z"/></svg>