<svg enable-background="new 0 0 250 54.6" height="54.6" viewBox="0 0 250 54.6" width="250" xmlns="http://www.w3.org/2000/svg"><path d="m134.9.8c0-.1-.2-.7-.2-.8-36.4 12.3-75.2 13.8-109.9 11l-2 4.1c40.7 2.5 81.2-1.9 112.1-14.3"/><g fill="#bcbe22"><path d="m91 31.4v22.4h-8.9v-22.4h-8v-7.4h24.5v7.4z"/><path d="m114.3 30.2c-3.6 0-5.7 3.4-5.7 8.8s2 8.8 5.7 8.8c3.6 0 5.7-3.4 5.7-8.8-.1-5.4-2.1-8.8-5.7-8.8m-.1 24.2c-8.7 0-14.4-6.2-14.4-15.4s5.7-15.5 14.5-15.5c8.7 0 14.4 6.2 14.4 15.4s-5.7 15.5-14.5 15.5"/><path d="m142.1 30.5h-1.1v8h1c2.9 0 4.5-1.3 4.5-4.1.1-2.7-1.4-3.9-4.4-3.9m.4 14.4h-1.4v8.9h-8.8v-29.8h10.3c7.7 0 12.4 3.3 12.4 10.2 0 7-5 10.7-12.5 10.7"/><path d="m147.6 51.1c.5 0 1.2.1 1.2-.6 0-.5-.4-.6-.9-.6h-1v1.2zm-.6 2.1h-.5v-3.7h1.6c1 0 1.3.4 1.3 1 0 .7-.5 1-1.1 1l1.1 1.6h-.5l-1-1.6h-.9zm3.4-1.9c0-1.6-1.1-2.7-2.7-2.7s-2.7 1.1-2.7 2.7 1.1 2.7 2.7 2.7c1.6.1 2.7-1.1 2.7-2.7m-5.9 0c0-1.8 1.4-3.2 3.2-3.2s3.2 1.4 3.2 3.2-1.4 3.2-3.2 3.2c-1.8.1-3.2-1.4-3.2-3.2"/></g><path d="m14.4 27.5-5.9 13.6h11.5zm11.1 26.3-4.3-10h-13.8l-4.3 10h-3.1l12.7-29.7h3.3l12.8 29.7z"/><path d="m43.2 54.3c-8.5 0-15.5-6.7-15.5-15.3s6.9-15.4 15.5-15.4c4.2 0 7.8 1.6 10.9 4.4 1.3 1.2 2.1 2 2.8 3.7h-3.3c-2.2-3.4-6.2-5.5-10.3-5.5-6.8 0-12.5 6.1-12.5 12.8s5.8 12.6 12.5 12.6c4.2 0 8-2.3 10.4-5.7h3.3c-2.9 5.2-8 8.4-13.8 8.4"/><path d="m60.6 53.8v-29.7h3v27h12.2v2.7z"/><path d="m166.4 26.2c-2.9 0-4.5 1.6-5.7 4.7h-3c1.1-5.1 4.5-7.6 8.7-7.6 4.8 0 8.5 3.5 8.5 7.7 0 2.5-1.3 4.6-3.8 6.1 3.5 1.4 5.4 4.6 5.4 7.8 0 4.9-3.9 9.6-10.1 9.6-5.1 0-8.7-2.9-9.7-8.7h2.9c1 3.8 3 5.8 6.8 5.8 4.3 0 7.1-3 7.1-6.5 0-2.2-1.2-4.2-3.3-5.3-1.7-.9-3.5-1-5.4-1.1v-2.7c4.7-.3 6.8-2.2 6.8-4.9.2-2.7-2-4.9-5.2-4.9"/><path d="m196.6 24.1v2.9h-10.6l-1.4 8c.7-.2 1.8-.5 3.5-.5 5.6 0 9.4 4.2 9.4 9.6 0 5.7-4 10.3-10.4 10.3-5 0-8.4-3.3-9-7.9h3c.7 3.6 3.5 5.2 6.2 5.2 3.8 0 7.1-3.2 7.1-7.7 0-4-2.7-6.8-7-6.8-2.3 0-4.3.8-6.3 1.6l2.7-14.7z"/><path d="m202.6 39c0 7.3 5.8 12.5 12.4 12.5 6.9 0 12.6-5.3 12.6-12.7 0-7.5-6-12.6-12.6-12.6-6.5 0-12.4 5.2-12.4 12.8m28.1-.1c0 8.7-6.8 15.5-15.6 15.5-9.1 0-15.6-7.1-15.6-15.4 0-8.8 6.8-15.7 15.4-15.7 8.9 0 15.8 6.7 15.8 15.6"/><path d="m239.8 31.1c-.9 1.2-2.3 1.8-4 1.8-3 0-4.9-2.1-4.9-4.8s2.1-4.7 4.9-4.7c1.7 0 3.1.7 4 1.9l-.7.5c-.8-1-1.9-1.6-3.2-1.6-2.1 0-3.9 1.6-3.9 3.9 0 2.2 1.7 3.9 4 3.9 1.3 0 2.3-.5 3.2-1.5z"/><path d="m239.9 24.5v-.9h5v.9h-2v8.1h-1v-8.1z"/><path d="m249.1 25.4c-.5-.6-.9-1.1-1.7-1.1s-1.2.6-1.2 1.1.3 1 .8 1.4c1.7 1.3 2.9 2.1 2.9 3.6 0 1.3-1.1 2.4-2.5 2.4-1.2 0-2.1-.7-2.7-1.9l.8-.5c.5 1 1.2 1.5 1.9 1.5.9 0 1.7-.7 1.7-1.5 0-1-.9-1.6-3-3.2-.4-.3-.8-1.1-.8-1.7 0-1.2 1-2.1 2.2-2.1 1.1 0 1.8.7 2.4 1.5z"/></svg>